# xmcd CD database file
#
# Track frame offsets:
#	150
#	17895
#	36015
#	56155
#
# Disc length: 823 seconds
#
# Revision: 0
# Processed by: cddbd v1.4PL0 Copyright (c) Steve Scherf et al.
# Submitted via: Feurio! 1.65 - http://www.feurio.com
#
DISCID=2e033504
DTITLE=Tony Ashton - Big Red
DYEAR=1900
DGENRE=Blues
TTITLE0=Big Red
TTITLE1=Travelin Javelin
TTITLE2=Strange Day
TTITLE3=Travelin Javelin Reprise
EXTD=ARD Repertoire Records REP 8018
EXTT0=
EXTT1=
EXTT2=
EXTT3=
PLAYORDER=
